PathFileType	4	(x/y/z)	S01_P20_T22
DataRate	CameraRate	NumFrames	NumMarkers	Units	OrigDataRate	OrigDataStartFrame	OrigNumFrames
240	240	5	51	mm	240	1	404
Frame#	Time	Sternum			R.Acromium			L.Acromium			Top.Head			R.ASIS			L.ASIS			R.PSIS			L.PSIS			R.Great.Tro			L.Great.Tro			R.Iliac.Crest			L.Iliac.Crest			V.Sacral			R.Thigh.Upper.Post			R.Thigh.Lower.Ant			R.Thigh.Lower.Post			R.Thigh.Upper.Ant			R.Knee.Lat			R.Knee.Med			R.Shank.Upper.Post			R.Shank.Lower.Ant			R.Shank.Lower.Post			R.Shank.Upper.Ant			R.Ankle.Lat			R.Ankle.Med			R.Heel.Upper			R.Heel.Med			R.Heel.Lat			R.Toe.Lat			R.Toe.Med			R.Toe.Tip			L.Thigh.Upper.Post			L.Thigh.Lower.Ant			L.Thigh.Lower.Post			L.Thigh.Upper.Ant			L.Knee.Lat			L.Knee.Med			L.Shank.Upper.Post			L.Shank.Lower.Ant			L.Shank.Lower.Post			L.Shank.Upper.Ant			L.Ankle.Lat			L.Ankle.Med			L.Heel.Upper			L.Heel.Med			L.Heel.Lat			L.Toe.Lat			L.Toe.Med			L.Toe.Tip			Cervical.Spine			Back			
		X1	Y1	Z1	X2	Y2	Z2	X3	Y3	Z3	X4	Y4	Z4	X5	Y5	Z5	X6	Y6	Z6	X7	Y7	Z7	X8	Y8	Z8	X9	Y9	Z9	X10	Y10	Z10	X11	Y11	Z11	X12	Y12	Z12	X13	Y13	Z13	X14	Y14	Z14	X15	Y15	Z15	X16	Y16	Z16	X17	Y17	Z17	X18	Y18	Z18	X19	Y19	Z19	X20	Y20	Z20	X21	Y21	Z21	X22	Y22	Z22	X23	Y23	Z23	X24	Y24	Z24	X25	Y25	Z25	X26	Y26	Z26	X27	Y27	Z27	X28	Y28	Z28	X29	Y29	Z29	X30	Y30	Z30	X31	Y31	Z31	X32	Y32	Z32	X33	Y33	Z33	X34	Y34	Z34	X35	Y35	Z35	X36	Y36	Z36	X37	Y37	Z37	X38	Y38	Z38	X39	Y39	Z39	X40	Y40	Z40	X41	Y41	Z41	X42	Y42	Z42	X43	Y43	Z43	X44	Y44	Z44	X45	Y45	Z45	X46	Y46	Z46	X47	Y47	Z47	X48	Y48	Z48	X49	Y49	Z49	X50	Y50	Z50	X51	Y51	Z51	

1	0	NaN	NaN	NaN	-1570.1	1501.6	477.76	-1622	1526.6	151.19	-1557.1	1831.1	310.46	NaN	NaN	NaN	NaN	NaN	NaN	-1763.2	1054	347.69	-1762.1	1048.4	244.61	NaN	NaN	NaN	-1619.6	963.83	93.246	-1607.3	1095.8	510.62	-1633.9	1088.5	103.37	-1775.1	1014.4	294.48	-1689.2	654.5	495.7	-1631.3	568.95	476.2	-1702.9	567.43	477.18	-1613.8	656.95	495.09	-1697.3	496.97	470.29	-1687.7	498.18	328.18	-1813.9	373.58	487.04	NaN	NaN	NaN	-1849.4	313.17	475.57	NaN	NaN	NaN	-1936.2	128.08	438.21	-1901.4	122.91	346.25	-2009.6	105.47	376.76	-1997.8	71.071	351.45	-2007.6	75.744	414.32	NaN	NaN	NaN	-1783.2	46.45	363.63	NaN	NaN	NaN	-1533.5	684.1	108.89	-1427.3	652.1	105.73	-1488.8	606.4	127.79	-1481.6	728.55	85.433	-1405.9	552.59	116.5	NaN	NaN	NaN	-1413.2	408.2	93.316	-1329.3	340.25	114.5	-1389.7	333.69	94.479	-1350.3	414.14	108.45	-1333.5	121.54	123.36	-1309.9	140.99	219.76	-1386	64.626	172.2	-1364.6	43.748	205.34	-1369.1	43.642	142.7	-1171.8	103.45	99.989	-1147.4	123.69	219.4	-1096.4	157.69	164.92	-1684.7	1575.2	327.95	-1775.8	1268.2	341.1
2	0.0041667	NaN	NaN	NaN	-1565.3	1500.7	476.74	-1616.7	1525.4	150.01	-1552.2	1830.2	309.28	NaN	NaN	NaN	NaN	NaN	NaN	-1757.4	1052.8	346.61	-1756.2	1047.1	243.55	NaN	NaN	NaN	-1613.1	962.72	92.698	-1602.4	1094.9	510.01	-1627.6	1087.3	102.57	-1769.2	1013.2	293.42	-1684.3	654	495.46	-1626	568.39	476.26	-1698.1	566.86	477.24	-1608.7	656.33	494.94	-1693.3	496.56	470.74	-1682.5	497.08	328.55	-1810.2	373.97	487.27	NaN	NaN	NaN	-1845.8	313.67	475.85	NaN	NaN	NaN	-1935.1	129.66	438.54	-1900.2	124.43	346.53	-2008.7	108.03	377.07	-1997.1	73.674	351.58	-2007	78.11	414.47	NaN	NaN	NaN	-1783.1	46.454	363.72	NaN	NaN	NaN	-1527.4	682.96	108.86	-1421.3	650.89	106.07	-1482.8	605.17	127.75	-1475.4	727.47	85.785	-1400.5	551.17	116.63	NaN	NaN	NaN	-1408.5	406.83	93.63	-1324.6	338.31	114.89	-1385.3	332.09	94.79	-1345.4	412.29	108.91	-1330.6	120	123.63	-1307	138.94	220.23	-1383.9	64.106	172.37	-1363.1	43.179	205.49	-1367.2	42.989	142.87	-1169.3	100.29	100.91	-1145.1	120.34	220.37	-1093.6	153.65	166.08	-1679.6	1574.1	326.7	-1770.4	1266.9	339.96
3	0.0083333	NaN	NaN	NaN	-1560.2	1499.8	475.67	-1611.1	1524.3	148.76	-1547.1	1829.2	308.03	NaN	NaN	NaN	NaN	NaN	NaN	-1751.3	1051.5	345.47	-1750	1045.8	242.43	NaN	NaN	NaN	-1606.4	961.57	92.117	-1597.2	1094	509.36	-1621	1086	101.73	-1763.1	1011.9	292.29	-1679.2	653.48	495.23	-1620.4	567.81	476.36	-1692.9	566.25	477.32	-1603.2	655.7	494.81	-1689	496.12	471.24	-1676.9	495.94	328.97	-1806.2	374.4	487.53	NaN	NaN	NaN	-1842	314.23	476.15	NaN	NaN	NaN	-1933.9	131.38	438.88	-1898.8	126.07	346.86	-2007.7	110.8	377.41	-1996.4	76.491	351.72	-2006.3	80.674	414.62	NaN	NaN	NaN	-1783	46.457	363.82	NaN	NaN	NaN	-1521.1	681.79	108.83	-1415	649.65	106.4	-1476.6	603.91	127.72	-1468.9	726.35	86.127	-1394.9	549.73	116.78	NaN	NaN	NaN	-1403.6	405.46	93.953	-1319.7	336.35	115.32	-1380.7	330.49	95.102	-1340.3	410.43	109.41	-1327.6	118.45	123.89	-1304	136.88	220.7	-1381.7	63.644	172.52	-1361.5	42.651	205.62	-1365.4	42.376	143.02	-1166.7	96.997	101.83	-1142.7	116.83	221.35	-1090.6	149.4	167.24	-1674.2	1573	325.39	-1764.8	1265.6	338.76
4	0.0125	NaN	NaN	NaN	-1554.9	1498.9	474.55	-1605.3	1523.1	147.45	-1541.8	1828.3	306.73	NaN	NaN	NaN	NaN	NaN	NaN	-1745.1	1050.3	344.29	-1743.6	1044.5	241.26	NaN	NaN	NaN	-1599.5	960.41	91.506	-1591.7	1093.1	508.67	-1614.2	1084.8	100.84	-1756.8	1010.6	291.12	-1673.7	652.93	495.01	-1614.6	567.21	476.51	-1687.5	565.62	477.42	-1597.5	655.06	494.69	-1684.4	495.67	471.77	-1671	494.76	329.43	-1802	374.9	487.81	NaN	NaN	NaN	-1837.9	314.88	476.48	NaN	NaN	NaN	-1932.5	133.24	439.25	-1897.3	127.83	347.23	-2006.5	113.79	377.76	-1995.5	79.529	351.86	-2005.4	83.444	414.78	NaN	NaN	NaN	-1782.9	46.461	363.93	NaN	NaN	NaN	-1514.6	680.61	108.81	-1408.6	648.38	106.71	-1470.2	602.64	127.69	-1462.3	725.21	86.452	-1389	548.29	116.94	NaN	NaN	NaN	-1398.4	404.13	94.279	-1314.7	334.39	115.78	-1375.9	328.92	95.411	-1334.9	408.57	109.92	-1324.5	116.91	124.14	-1300.9	134.81	221.15	-1379.6	63.263	172.66	-1360	42.183	205.74	-1363.5	41.823	143.17	-1164.2	93.598	102.73	-1140.3	113.18	222.31	-1087.6	144.96	168.39	-1668.7	1571.9	324.02	-1759	1264.3	337.5
5	0.016667	NaN	NaN	NaN	-1549.5	1498.1	473.39	-1599.4	1521.9	146.1	-1536.4	1827.4	305.38	NaN	NaN	NaN	NaN	NaN	NaN	-1738.7	1049	343.08	-1737	1043.3	240.05	NaN	NaN	NaN	-1592.5	959.25	90.869	-1586.1	1092.2	507.94	-1607.1	1083.6	99.912	-1750.3	1009.4	289.91	-1668	652.36	494.8	-1608.5	566.59	476.73	-1681.7	564.96	477.56	-1591.5	654.42	494.59	-1679.6	495.19	472.35	-1664.9	493.54	329.94	-1797.5	375.47	488.11	NaN	NaN	NaN	-1833.7	315.61	476.83	NaN	NaN	NaN	-1931	135.24	439.64	-1895.6	129.72	347.64	-2005.2	117	378.12	-1994.5	82.8	352.01	-2004.5	86.43	414.95	NaN	NaN	NaN	-1782.9	46.47	364.04	NaN	NaN	NaN	-1508	679.42	108.79	-1402	647.1	107	-1463.7	601.36	127.69	-1455.6	724.06	86.754	-1383	546.87	117.1	NaN	NaN	NaN	-1393	402.84	94.605	-1309.5	332.45	116.28	-1371	327.4	95.712	-1329.4	406.74	110.46	-1321.5	115.42	124.37	-1297.9	132.79	221.6	-1377.5	62.979	172.77	-1358.5	41.788	205.85	-1361.8	41.347	143.3	-1161.8	90.12	103.6	-1137.9	109.42	223.25	-1084.6	140.36	169.5	-1663.1	1570.8	322.59	-1753	1263	336.2
